:FULLY-SPECIFIED
:FORCE-ALL-JOINTS-BE-3DOF
:DEGREES
781
root 1.63116 16.373 18.6468 -21.9102 74.0603 332
lfemur -36.468 10.6355 -13.569
ltibia 50.6608 0 0
lfoot -22.5208 18.9374 0
ltoes 16.2463 0 0
rfemur -15.3076 -22.1014 21.4112
rtibia 51.3913 0 0
rfoot -18.4017 -30.8234 0
rtoes -25.1226 0 0
lowerback 1.03307 4.65652 -0.513324
upperback -0.854257 6.19698 -3.64941
thorax -1.10435 3.10927 -3.57017
lowerneck -5.44177 -6.47743 -0.532214
upperneck -2.02236 -8.54649 4.87276
head 0.530091 -4.2008 1.40642
lclavicle 3.40916e-14 3.86212e-15 0
lhumerus -55.9656 -11.5864 94.8474
lradius 70.6518 0 0
lwrist 13.4059 0 0
lhand -21.5808 -4.65657 0
lfingers 7.12502 0 0
lthumb 4.81345 25.2628 0
rclavicle 3.40916e-14 3.86212e-15 0
rhumerus -31.3397 48.1625 -112.893
rradius 79.7507 0 0
rwrist 5.67478 0 0
rhand -23.5362 -20.2746 0
rfingers 7.12502 0 0
rthumb 2.92532 -770.234 0
782
root 1.60293 16.407 18.7305 -17.1019 71.1173 336.955
lfemur -35.5916 8.08467 -12.4929
ltibia 50.226 0 0
lfoot -22.2956 17.9112 0
ltoes 14.7475 0 0
rfemur -15.2061 -20.9805 21.1148
rtibia 50.8373 0 0
rfoot -18.1716 -29.3588 0
rtoes -25.7461 0 0
lowerback 1.01047 4.64161 -0.242588
upperback -0.777257 6.18114 -3.53008
thorax -0.998123 3.09917 -3.58963
lowerneck -5.50143 -6.31699 -0.387502
upperneck -1.74724 -8.35701 4.62101
head 0.601683 -4.10753 1.30254
lclavicle 2.34566e-14 7.26987e-15 0
lhumerus -56.0652 -11.5621 94.913
lradius 70.6299 0 0
lwrist 13.9753 0 0
lhand -22.0538 -4.23062 0
lfingers 7.12502 0 0
lthumb 4.35671 25.6986 0
rclavicle 2.34566e-14 7.26987e-15 0
rhumerus -31.9426 48.0446 -113.42
rradius 79.6045 0 0
rwrist 5.41476 0 0
rhand -23.7058 -20.4422 0
rfingers 7.12502 0 0
rthumb 2.76143 -770.403 0
783
root 1.5747 16.441 18.8142 -12.2937 68.1744 341.909
lfemur -34.7152 5.53389 -11.4169
ltibia 49.7912 0 0
lfoot -22.0704 16.885 0
ltoes 13.2488 0 0
rfemur -15.1046 -19.8597 20.8184
rtibia 50.2833 0 0
rfoot -17.9415 -27.8941 0
rtoes -26.3695 0 0
lowerback 0.987875 4.6267 0.0281471
upperback -0.700256 6.1653 -3.41075
thorax -0.891899 3.08906 -3.60909
lowerneck -5.56108 -6.15656 -0.242791
upperneck -1.47211 -8.16752 4.36926
head 0.673274 -4.01426 1.19865
lclavicle 1.28216e-14 1.06776e-14 0
lhumerus -56.1648 -11.5378 94.9786
lradius 70.608 0 0
lwrist 14.5446 0 0
lhand -22.5268 -3.80468 0
lfingers 7.12502 0 0
lthumb 3.89998 26.1344 0
rclavicle 1.28216e-14 1.06776e-14 0
rhumerus -32.5456 47.9268 -113.947
rradius 79.4582 0 0
rwrist 5.15473 0 0
rhand -23.8755 -20.6098 0
rfingers 7.12502 0 0
rthumb 2.59755 -770.573 0
784
root 1.54647 16.4749 18.898 -7.48552 65.2315 346.864
lfemur -33.8389 2.98311 -10.3408
ltibia 49.3564 0 0
lfoot -21.8452 15.8589 0
ltoes 11.75 0 0
rfemur -15.0032 -18.7389 20.522
rtibia 49.7293 0 0
rfoot -17.7115 -26.4295 0
rtoes -26.993 0 0
lowerback 0.965276 4.6118 0.298883
upperback -0.623255 6.14945 -3.29143
thorax -0.785674 3.07895 -3.62856
lowerneck -5.62074 -5.99613 -0.0980791
upperneck -1.19699 -7.97804 4.11751
head 0.744866 -3.921 1.09476
lclavicle 2.18663e-15 1.40854e-14 0
lhumerus -56.2643 -11.5136 95.0443
lradius 70.5862 0 0
lwrist 15.1139 0 0
lhand -22.9998 -3.37874 0
lfingers 7.12502 0 0
lthumb 3.44325 26.5702 0
rclavicle 2.18663e-15 1.40854e-14 0
rhumerus -33.1486 47.809 -114.475
rradius 79.312 0 0
rwrist 4.89471 0 0
rhand -24.0452 -20.7774 0
rfingers 7.12502 0 0
rthumb 2.43367 -770.743 0
785
root 1.51824 16.5089 18.9817 -2.67731 62.2886 351.818
lfemur -32.9625 0.432324 -9.26479
ltibia 48.9216 0 0
lfoot -21.62 14.8327 0
ltoes 10.2513 0 0
rfemur -14.9017 -17.6181 20.2256
rtibia 49.1753 0 0
rfoot -17.4814 -24.9648 0
rtoes -27.6164 0 0
lowerback 0.942677 4.59689 0.569618
upperback -0.546254 6.13361 -3.1721
thorax -0.67945 3.06884 -3.64802
lowerneck -5.68039 -5.8357 0.0466325
upperneck -0.921863 -7.78855 3.86576
head 0.816457 -3.82773 0.990877
lclavicle -8.44835e-15 1.74931e-14 0
lhumerus -56.3639 -11.4893 95.1099
lradius 70.5643 0 0
lwrist 15.6832 0 0
lhand -23.4728 -2.9528 0
lfingers 7.12502 0 0
lthumb 2.98652 27.006 0
rclavicle -8.44835e-15 1.74931e-14 0
rhumerus -33.7516 47.6912 -115.002
rradius 79.1657 0 0
rwrist 4.63468 0 0
rhand -24.2149 -20.945 0
rfingers 7.12502 0 0
rthumb 2.26979 -770.913 0
786
root 1.51444 16.5183 19.0767 -1.7817 59.6072 352.344
lfemur -33.6733 -0.623805 -8.92575
ltibia 49.4569 0 0
lfoot -21.4804 12.6555 0
ltoes 10.1842 0 0
rfemur -15.1966 -16.7078 20.2673
rtibia 48.7005 0 0
rfoot -17.9561 -23.937 0
rtoes -27.1775 0 0
lowerback 0.607696 4.60438 0.751877
upperback -0.620283 6.1419 -3.05727
thorax -0.56141 3.07239 -3.60435
lowerneck -5.70523 -5.69829 0.13261
upperneck -0.875818 -7.61258 3.75119
head 0.824016 -3.74147 0.945065
lclavicle -2.01198e-14 1.49941e-14 0
lhumerus -56.373 -11.2417 94.9545
lradius 70.4497 0 0
lwrist 16.1461 0 0
lhand -22.9592 -2.64272 0
lfingers 7.12502 0 0
lthumb 3.48245 27.305 0
rclavicle -2.01198e-14 1.49941e-14 0
rhumerus -34.115 47.4588 -115.173
rradius 78.7967 0 0
rwrist 4.52016 0 0
rhand -24.0716 -21.3184 0
rfingers 7.12502 0 0
rthumb 2.4082 -771.285 0
787
root 1.51064 16.5276 19.1717 -0.886087 56.9257 352.869
lfemur -34.3841 -1.67993 -8.58671
ltibia 49.9921 0 0
lfoot -21.3407 10.4784 0
ltoes 10.1171 0 0
rfemur -15.4914 -15.7976 20.3089
rtibia 48.2257 0 0
rfoot -18.4308 -22.9093 0
rtoes -26.7385 0 0
lowerback 0.272715 4.61186 0.934136
upperback -0.694313 6.1502 -2.94243
thorax -0.44337 3.07595 -3.56068
lowerneck -5.73007 -5.56088 0.218588
upperneck -0.829774 -7.43661 3.63662
head 0.831576 -3.65521 0.899252
lclavicle -3.17913e-14 1.24951e-14 0
lhumerus -56.3822 -10.9942 94.7991
lradius 70.3351 0 0
lwrist 16.609 0 0
lhand -22.4456 -2.33264 0
lfingers 7.12502 0 0
lthumb 3.97839 27.6041 0
rclavicle -3.17913e-14 1.24951e-14 0
rhumerus -34.4785 47.2265 -115.345
rradius 78.4278 0 0
rwrist 4.40565 0 0
rhand -23.9283 -21.6918 0
rfingers 7.12502 0 0
rthumb 2.54661 -771.656 0
788
root 1.50684 16.537 19.2667 0.00952429 54.2443 353.395
lfemur -35.0949 -2.73606 -8.24767
ltibia 50.5274 0 0
lfoot -21.2011 8.30119 0
ltoes 10.05 0 0
rfemur -15.7863 -14.8873 20.3506
rtibia 47.7509 0 0
rfoot -18.9055 -21.8815 0
rtoes -26.2996 0 0
lowerback -0.062266 4.61935 1.11639
upperback -0.768342 6.15849 -2.8276
thorax -0.32533 3.0795 -3.51701
lowerneck -5.75491 -5.42347 0.304566
upperneck -0.783729 -7.26064 3.52205
head 0.839135 -3.56895 0.85344
lclavicle -4.34628e-14 9.99606e-15 0
lhumerus -56.3913 -10.7466 94.6437
lradius 70.2205 0 0
lwrist 17.0719 0 0
lhand -21.932 -2.02255 0
lfingers 7.12502 0 0
lthumb 4.47432 27.9031 0
rclavicle -4.34628e-14 9.99606e-15 0
rhumerus -34.8419 46.9941 -115.516
rradius 78.0588 0 0
rwrist 4.29113 0 0
rhand -23.785 -22.0652 0
rfingers 7.12502 0 0
rthumb 2.68502 -772.028 0
789
root 1.50303 16.5464 19.3618 0.905136 51.5629 353.921
lfemur -35.8058 -3.79219 -7.90864
ltibia 51.0626 0 0
lfoot -21.0615 6.12402 0
ltoes 9.98292 0 0
rfemur -16.0812 -13.9771 20.3922
rtibia 47.276 0 0
rfoot -19.3802 -20.8537 0
rtoes -25.8606 0 0
lowerback -0.397247 4.62683 1.29865
upperback -0.842372 6.16679 -2.71276
thorax -0.207289 3.08306 -3.47335
lowerneck -5.77974 -5.28606 0.390544
upperneck -0.737684 -7.08466 3.40747
head 0.846695 -3.48269 0.807628
lclavicle -5.51343e-14 7.49704e-15 0
lhumerus -56.4004 -10.499 94.4884
lradius 70.1059 0 0
lwrist 17.5347 0 0
lhand -21.4183 -1.71247 0
lfingers 7.12502 0 0
lthumb 4.97025 28.2022 0
rclavicle -5.51343e-14 7.49704e-15 0
rhumerus -35.2053 46.7618 -115.687
rradius 77.6898 0 0
rwrist 4.17662 0 0
rhand -23.6416 -22.4386 0
rfingers 7.12502 0 0
rthumb 2.82343 -772.399 0
790
root 1.49923 16.5558 19.4568 1.80075 48.8815 354.447
lfemur -36.5166 -4.84832 -7.5696
ltibia 51.5979 0 0
lfoot -20.9219 3.94686 0
ltoes 9.91583 0 0
rfemur -16.3761 -13.0668 20.4339
rtibia 46.8012 0 0
rfoot -19.8549 -19.8259 0
rtoes -25.4217 0 0
lowerback -0.732228 4.63432 1.48091
upperback -0.916401 6.17508 -2.59793
thorax -0.0892493 3.08661 -3.42968
lowerneck -5.80458 -5.14865 0.476521
upperneck -0.691639 -6.90869 3.2929
head 0.854254 -3.39643 0.761816
lclavicle -6.68058e-14 4.99803e-15 0
lhumerus -56.4095 -10.2515 94.333
lradius 69.9913 0 0
lwrist 17.9976 0 0
lhand -20.9047 -1.40239 0
lfingers 7.12502 0 0
lthumb 5.46618 28.5012 0
rclavicle -6.68058e-14 4.99803e-15 0
rhumerus -35.5687 46.5294 -115.858
rradius 77.3208 0 0
rwrist 4.0621 0 0
rhand -23.4983 -22.812 0
rfingers 7.12502 0 0
rthumb 2.96184 -772.771 0
791
root 1.49543 16.5651 19.5518 2.69636 46.2 354.972
lfemur -37.2274 -5.90445 -7.23056
ltibia 52.1331 0 0
lfoot -20.7822 1.76969 0
ltoes 9.84873 0 0
rfemur -16.6709 -12.1566 20.4755
rtibia 46.3264 0 0
rfoot -20.3296 -18.7982 0
rtoes -24.9827 0 0
lowerback -1.06721 4.6418 1.66317
upperback -0.990431 6.18338 -2.48309
thorax 0.0287909 3.09017 -3.38601
lowerneck -5.82942 -5.01124 0.562499
upperneck -0.645595 -6.73272 3.17833
head 0.861814 -3.31017 0.716003
lclavicle -7.84773e-14 2.49901e-15 0
lhumerus -56.4187 -10.0039 94.1776
lradius 69.8767 0 0
lwrist 18.4605 0 0
lhand -20.3911 -1.09231 0
lfingers 7.12502 0 0
lthumb 5.96212 28.8003 0
rclavicle -7.84773e-14 2.49901e-15 0
rhumerus -35.9322 46.2971 -116.03
rradius 76.9519 0 0
rwrist 3.94759 0 0
rhand -23.355 -23.1854 0
rfingers 7.12502 0 0
rthumb 3.10025 -773.142 0
792
root 1.49163 16.5745 19.6468 3.59197 43.5186 355.498
lfemur -37.9382 -6.96058 -6.89152
ltibia 52.6684 0 0
lfoot -20.6426 -0.407483 0
ltoes 9.78164 0 0
rfemur -16.9658 -11.2463 20.5172
rtibia 45.8516 0 0
rfoot -20.8043 -17.7704 0
rtoes -24.5438 0 0
lowerback -1.40219 4.64929 1.84543
upperback -1.06446 6.19167 -2.36826
thorax 0.146831 3.09372 -3.34234
lowerneck -5.85426 -4.87383 0.648477
upperneck -0.59955 -6.55675 3.06376
head 0.869373 -3.22391 0.670191
lclavicle -9.01488e-14 0 0
lhumerus -56.4278 -9.75635 94.0222
lradius 69.7621 0 0
lwrist 18.9234 0 0
lhand -19.8775 -0.782223 0
lfingers 7.12502 0 0
lthumb 6.45805 29.0993 0
rclavicle -9.01488e-14 0 0
rhumerus -36.2956 46.0647 -116.201
rradius 76.5829 0 0
rwrist 3.83307 0 0
rhand -23.2117 -23.5588 0
rfingers 7.12502 0 0
rthumb 3.23866 -773.514 0
